<mxfile host="app.diagrams.net" modified="2023-09-16T09:11:22.813Z" agent="Mozilla/5.0 (Windows NT 10.0; Win64; x64) AppleWebKit/537.36 (KHTML, like Gecko) Chrome/116.0.0.0 Safari/537.36 Edg/116.0.1938.81" etag="gCmHahgehAq8KCVFAwuU" version="21.7.4" type="github">
  <diagram id="mCheTAdoRBEMM2ChDu2A" name="Page-1">
    <mxGraphModel dx="655" dy="1558" grid="1" gridSize="10" guides="1" tooltips="1" connect="1" arrows="1" fold="1" page="1" pageScale="1" pageWidth="827" pageHeight="1169" math="0" shadow="0">
      <root>
        <mxCell id="0" />
        <mxCell id="1" parent="0" />
        <mxCell id="ntreNU7jlo5U-lVnMiPV-1" value="" style="rounded=0;whiteSpace=wrap;html=1;" parent="1" vertex="1">
          <mxGeometry x="240" y="310" width="400" height="20" as="geometry" />
        </mxCell>
        <mxCell id="ntreNU7jlo5U-lVnMiPV-46" value="" style="endArrow=none;html=1;rounded=0;exitX=0.06;exitY=0.006;exitDx=0;exitDy=0;exitPerimeter=0;entryX=0.06;entryY=1.006;entryDx=0;entryDy=0;entryPerimeter=0;" parent="1" edge="1">
          <mxGeometry width="50" height="50" relative="1" as="geometry">
            <mxPoint x="260.00000000000006" y="309.9999999999999" as="sourcePoint" />
            <mxPoint x="260.00000000000006" y="329.9999999999999" as="targetPoint" />
          </mxGeometry>
        </mxCell>
        <mxCell id="ntreNU7jlo5U-lVnMiPV-47" value="" style="endArrow=none;html=1;rounded=0;exitX=0.06;exitY=0.006;exitDx=0;exitDy=0;exitPerimeter=0;entryX=0.06;entryY=1.006;entryDx=0;entryDy=0;entryPerimeter=0;" parent="1" edge="1">
          <mxGeometry width="50" height="50" relative="1" as="geometry">
            <mxPoint x="360" y="310" as="sourcePoint" />
            <mxPoint x="360" y="330" as="targetPoint" />
          </mxGeometry>
        </mxCell>
        <mxCell id="ntreNU7jlo5U-lVnMiPV-48" value="" style="endArrow=none;html=1;rounded=0;exitX=0.06;exitY=0.006;exitDx=0;exitDy=0;exitPerimeter=0;entryX=0.06;entryY=1.006;entryDx=0;entryDy=0;entryPerimeter=0;" parent="1" edge="1">
          <mxGeometry width="50" height="50" relative="1" as="geometry">
            <mxPoint x="380" y="310" as="sourcePoint" />
            <mxPoint x="380" y="330" as="targetPoint" />
          </mxGeometry>
        </mxCell>
        <mxCell id="ntreNU7jlo5U-lVnMiPV-49" value="" style="endArrow=none;html=1;rounded=0;exitX=0.06;exitY=0.006;exitDx=0;exitDy=0;exitPerimeter=0;entryX=0.06;entryY=1.006;entryDx=0;entryDy=0;entryPerimeter=0;" parent="1" edge="1">
          <mxGeometry width="50" height="50" relative="1" as="geometry">
            <mxPoint x="400" y="310" as="sourcePoint" />
            <mxPoint x="400" y="330" as="targetPoint" />
          </mxGeometry>
        </mxCell>
        <mxCell id="ntreNU7jlo5U-lVnMiPV-50" value="" style="endArrow=none;html=1;rounded=0;exitX=0.06;exitY=0.006;exitDx=0;exitDy=0;exitPerimeter=0;entryX=0.06;entryY=1.006;entryDx=0;entryDy=0;entryPerimeter=0;" parent="1" edge="1">
          <mxGeometry width="50" height="50" relative="1" as="geometry">
            <mxPoint x="420" y="310" as="sourcePoint" />
            <mxPoint x="420" y="330" as="targetPoint" />
          </mxGeometry>
        </mxCell>
        <mxCell id="ntreNU7jlo5U-lVnMiPV-51" value="" style="endArrow=none;html=1;rounded=0;exitX=0.06;exitY=0.006;exitDx=0;exitDy=0;exitPerimeter=0;entryX=0.06;entryY=1.006;entryDx=0;entryDy=0;entryPerimeter=0;" parent="1" edge="1">
          <mxGeometry width="50" height="50" relative="1" as="geometry">
            <mxPoint x="439.78999999999996" y="310" as="sourcePoint" />
            <mxPoint x="439.78999999999996" y="330" as="targetPoint" />
          </mxGeometry>
        </mxCell>
        <mxCell id="ntreNU7jlo5U-lVnMiPV-52" value="" style="endArrow=none;html=1;rounded=0;exitX=0.06;exitY=0.006;exitDx=0;exitDy=0;exitPerimeter=0;entryX=0.06;entryY=1.006;entryDx=0;entryDy=0;entryPerimeter=0;" parent="1" edge="1">
          <mxGeometry width="50" height="50" relative="1" as="geometry">
            <mxPoint x="460" y="310" as="sourcePoint" />
            <mxPoint x="460" y="330" as="targetPoint" />
          </mxGeometry>
        </mxCell>
        <mxCell id="ntreNU7jlo5U-lVnMiPV-53" value="" style="endArrow=none;html=1;rounded=0;exitX=0.06;exitY=0.006;exitDx=0;exitDy=0;exitPerimeter=0;entryX=0.06;entryY=1.006;entryDx=0;entryDy=0;entryPerimeter=0;" parent="1" edge="1">
          <mxGeometry width="50" height="50" relative="1" as="geometry">
            <mxPoint x="479.79" y="310" as="sourcePoint" />
            <mxPoint x="479.79" y="330" as="targetPoint" />
          </mxGeometry>
        </mxCell>
        <mxCell id="ntreNU7jlo5U-lVnMiPV-54" value="" style="endArrow=none;html=1;rounded=0;exitX=0.06;exitY=0.006;exitDx=0;exitDy=0;exitPerimeter=0;entryX=0.06;entryY=1.006;entryDx=0;entryDy=0;entryPerimeter=0;" parent="1" edge="1">
          <mxGeometry width="50" height="50" relative="1" as="geometry">
            <mxPoint x="500" y="310" as="sourcePoint" />
            <mxPoint x="500" y="330" as="targetPoint" />
          </mxGeometry>
        </mxCell>
        <mxCell id="ntreNU7jlo5U-lVnMiPV-55" value="" style="endArrow=none;html=1;rounded=0;exitX=0.06;exitY=0.006;exitDx=0;exitDy=0;exitPerimeter=0;entryX=0.06;entryY=1.006;entryDx=0;entryDy=0;entryPerimeter=0;" parent="1" edge="1">
          <mxGeometry width="50" height="50" relative="1" as="geometry">
            <mxPoint x="520" y="310" as="sourcePoint" />
            <mxPoint x="520" y="330" as="targetPoint" />
          </mxGeometry>
        </mxCell>
        <mxCell id="ntreNU7jlo5U-lVnMiPV-56" value="" style="endArrow=none;html=1;rounded=0;exitX=0.06;exitY=0.006;exitDx=0;exitDy=0;exitPerimeter=0;entryX=0.06;entryY=1.006;entryDx=0;entryDy=0;entryPerimeter=0;" parent="1" edge="1">
          <mxGeometry width="50" height="50" relative="1" as="geometry">
            <mxPoint x="560" y="310" as="sourcePoint" />
            <mxPoint x="560" y="330" as="targetPoint" />
          </mxGeometry>
        </mxCell>
        <mxCell id="ntreNU7jlo5U-lVnMiPV-57" value="" style="endArrow=none;html=1;rounded=0;exitX=0.06;exitY=0.006;exitDx=0;exitDy=0;exitPerimeter=0;entryX=0.06;entryY=1.006;entryDx=0;entryDy=0;entryPerimeter=0;" parent="1" edge="1">
          <mxGeometry width="50" height="50" relative="1" as="geometry">
            <mxPoint x="540" y="310" as="sourcePoint" />
            <mxPoint x="540" y="330" as="targetPoint" />
          </mxGeometry>
        </mxCell>
        <mxCell id="ntreNU7jlo5U-lVnMiPV-58" value="" style="endArrow=none;html=1;rounded=0;exitX=0.06;exitY=0.006;exitDx=0;exitDy=0;exitPerimeter=0;entryX=0.06;entryY=1.006;entryDx=0;entryDy=0;entryPerimeter=0;" parent="1" edge="1">
          <mxGeometry width="50" height="50" relative="1" as="geometry">
            <mxPoint x="580" y="310" as="sourcePoint" />
            <mxPoint x="580" y="330" as="targetPoint" />
          </mxGeometry>
        </mxCell>
        <mxCell id="ntreNU7jlo5U-lVnMiPV-59" value="" style="endArrow=none;html=1;rounded=0;exitX=0.06;exitY=0.006;exitDx=0;exitDy=0;exitPerimeter=0;entryX=0.06;entryY=1.006;entryDx=0;entryDy=0;entryPerimeter=0;" parent="1" edge="1">
          <mxGeometry width="50" height="50" relative="1" as="geometry">
            <mxPoint x="600" y="310" as="sourcePoint" />
            <mxPoint x="600" y="330" as="targetPoint" />
          </mxGeometry>
        </mxCell>
        <mxCell id="ntreNU7jlo5U-lVnMiPV-60" value="" style="endArrow=none;html=1;rounded=0;exitX=0.06;exitY=0.006;exitDx=0;exitDy=0;exitPerimeter=0;entryX=0.06;entryY=1.006;entryDx=0;entryDy=0;entryPerimeter=0;" parent="1" edge="1">
          <mxGeometry width="50" height="50" relative="1" as="geometry">
            <mxPoint x="620" y="310" as="sourcePoint" />
            <mxPoint x="620" y="330" as="targetPoint" />
          </mxGeometry>
        </mxCell>
        <mxCell id="ntreNU7jlo5U-lVnMiPV-77" value="" style="ellipse;whiteSpace=wrap;html=1;fillColor=none;strokeColor=#FF3333;strokeWidth=1.5;" parent="1" vertex="1">
          <mxGeometry x="520" y="290" width="120" height="60" as="geometry" />
        </mxCell>
        <mxCell id="ntreNU7jlo5U-lVnMiPV-78" value="" style="ellipse;whiteSpace=wrap;html=1;fillColor=none;strokeColor=#6666FF;strokeWidth=1.5;" parent="1" vertex="1">
          <mxGeometry x="420" y="290" width="220" height="60" as="geometry" />
        </mxCell>
        <mxCell id="ntreNU7jlo5U-lVnMiPV-79" value="" style="ellipse;whiteSpace=wrap;html=1;fillColor=none;strokeColor=#009900;strokeWidth=1.5;" parent="1" vertex="1">
          <mxGeometry x="240" y="290" width="400" height="60" as="geometry" />
        </mxCell>
        <mxCell id="ntreNU7jlo5U-lVnMiPV-83" value="Expert1-MLP&lt;br&gt;(L*C)*d" style="rounded=0;whiteSpace=wrap;html=1;" parent="1" vertex="1">
          <mxGeometry x="296" y="200" width="96" height="40" as="geometry" />
        </mxCell>
        <mxCell id="ntreNU7jlo5U-lVnMiPV-84" value="Expert2-MLP&lt;br&gt;(L/2*C)*d" style="rounded=0;whiteSpace=wrap;html=1;" parent="1" vertex="1">
          <mxGeometry x="410" y="200" width="100" height="40" as="geometry" />
        </mxCell>
        <mxCell id="ntreNU7jlo5U-lVnMiPV-85" value="Expert3-MLP&lt;br&gt;(L/4*C)*d" style="rounded=0;whiteSpace=wrap;html=1;" parent="1" vertex="1">
          <mxGeometry x="530" y="200" width="100" height="40" as="geometry" />
        </mxCell>
        <mxCell id="ntreNU7jlo5U-lVnMiPV-88" value="" style="endArrow=classic;html=1;rounded=0;exitX=0.263;exitY=0.051;exitDx=0;exitDy=0;entryX=0.5;entryY=1;entryDx=0;entryDy=0;exitPerimeter=0;" parent="1" source="ntreNU7jlo5U-lVnMiPV-79" target="ntreNU7jlo5U-lVnMiPV-83" edge="1">
          <mxGeometry width="50" height="50" relative="1" as="geometry">
            <mxPoint x="390" y="240" as="sourcePoint" />
            <mxPoint x="440" y="190" as="targetPoint" />
          </mxGeometry>
        </mxCell>
        <mxCell id="ntreNU7jlo5U-lVnMiPV-89" value="" style="endArrow=classic;html=1;rounded=0;entryX=0.5;entryY=1;entryDx=0;entryDy=0;" parent="1" target="ntreNU7jlo5U-lVnMiPV-84" edge="1">
          <mxGeometry width="50" height="50" relative="1" as="geometry">
            <mxPoint x="461" y="300" as="sourcePoint" />
            <mxPoint x="380" y="200" as="targetPoint" />
          </mxGeometry>
        </mxCell>
        <mxCell id="ntreNU7jlo5U-lVnMiPV-90" value="" style="endArrow=classic;html=1;rounded=0;exitX=0.5;exitY=0;exitDx=0;exitDy=0;entryX=0.5;entryY=1;entryDx=0;entryDy=0;" parent="1" source="ntreNU7jlo5U-lVnMiPV-77" target="ntreNU7jlo5U-lVnMiPV-85" edge="1">
          <mxGeometry width="50" height="50" relative="1" as="geometry">
            <mxPoint x="570" y="224.5" as="sourcePoint" />
            <mxPoint x="574" y="115.5" as="targetPoint" />
          </mxGeometry>
        </mxCell>
        <mxCell id="ntreNU7jlo5U-lVnMiPV-91" value="Gating" style="rounded=0;whiteSpace=wrap;html=1;" parent="1" vertex="1">
          <mxGeometry x="156" y="230" width="80" height="40" as="geometry" />
        </mxCell>
        <mxCell id="ntreNU7jlo5U-lVnMiPV-92" value="" style="endArrow=classic;html=1;rounded=0;exitX=0;exitY=0.5;exitDx=0;exitDy=0;entryX=0.5;entryY=1;entryDx=0;entryDy=0;" parent="1" source="ntreNU7jlo5U-lVnMiPV-1" target="ntreNU7jlo5U-lVnMiPV-91" edge="1">
          <mxGeometry width="50" height="50" relative="1" as="geometry">
            <mxPoint x="340" y="330" as="sourcePoint" />
            <mxPoint x="390" y="280" as="targetPoint" />
            <Array as="points">
              <mxPoint x="196" y="320" />
            </Array>
          </mxGeometry>
        </mxCell>
        <mxCell id="ntreNU7jlo5U-lVnMiPV-94" value="" style="ellipse;whiteSpace=wrap;html=1;aspect=fixed;fillColor=none;" parent="1" vertex="1">
          <mxGeometry x="334" y="110" width="20" height="20" as="geometry" />
        </mxCell>
        <mxCell id="ntreNU7jlo5U-lVnMiPV-95" value="" style="endArrow=none;html=1;rounded=0;exitX=0;exitY=1;exitDx=0;exitDy=0;entryX=1;entryY=0;entryDx=0;entryDy=0;" parent="1" source="ntreNU7jlo5U-lVnMiPV-94" target="ntreNU7jlo5U-lVnMiPV-94" edge="1">
          <mxGeometry width="50" height="50" relative="1" as="geometry">
            <mxPoint x="337.6533982822018" y="134.87660171779828" as="sourcePoint" />
            <mxPoint x="360.35" y="115.12" as="targetPoint" />
          </mxGeometry>
        </mxCell>
        <mxCell id="ntreNU7jlo5U-lVnMiPV-96" value="" style="endArrow=none;html=1;rounded=0;exitX=0;exitY=0;exitDx=0;exitDy=0;entryX=1;entryY=1;entryDx=0;entryDy=0;" parent="1" source="ntreNU7jlo5U-lVnMiPV-94" target="ntreNU7jlo5U-lVnMiPV-94" edge="1">
          <mxGeometry width="50" height="50" relative="1" as="geometry">
            <mxPoint x="348" y="146" as="sourcePoint" />
            <mxPoint x="371" y="126" as="targetPoint" />
          </mxGeometry>
        </mxCell>
        <mxCell id="ntreNU7jlo5U-lVnMiPV-97" value="" style="ellipse;whiteSpace=wrap;html=1;aspect=fixed;fillColor=none;" parent="1" vertex="1">
          <mxGeometry x="449" y="110" width="20" height="20" as="geometry" />
        </mxCell>
        <mxCell id="ntreNU7jlo5U-lVnMiPV-98" value="" style="endArrow=none;html=1;rounded=0;exitX=0;exitY=1;exitDx=0;exitDy=0;entryX=1;entryY=0;entryDx=0;entryDy=0;" parent="1" source="ntreNU7jlo5U-lVnMiPV-97" target="ntreNU7jlo5U-lVnMiPV-97" edge="1">
          <mxGeometry width="50" height="50" relative="1" as="geometry">
            <mxPoint x="422.6533982822018" y="144.87660171779828" as="sourcePoint" />
            <mxPoint x="445.35" y="125.12" as="targetPoint" />
          </mxGeometry>
        </mxCell>
        <mxCell id="ntreNU7jlo5U-lVnMiPV-99" value="" style="endArrow=none;html=1;rounded=0;exitX=0;exitY=0;exitDx=0;exitDy=0;entryX=1;entryY=1;entryDx=0;entryDy=0;" parent="1" source="ntreNU7jlo5U-lVnMiPV-97" target="ntreNU7jlo5U-lVnMiPV-97" edge="1">
          <mxGeometry width="50" height="50" relative="1" as="geometry">
            <mxPoint x="433" y="156" as="sourcePoint" />
            <mxPoint x="456" y="136" as="targetPoint" />
          </mxGeometry>
        </mxCell>
        <mxCell id="ntreNU7jlo5U-lVnMiPV-104" value="" style="ellipse;whiteSpace=wrap;html=1;aspect=fixed;fillColor=none;" parent="1" vertex="1">
          <mxGeometry x="569" y="110" width="20" height="20" as="geometry" />
        </mxCell>
        <mxCell id="ntreNU7jlo5U-lVnMiPV-105" value="" style="endArrow=none;html=1;rounded=0;exitX=0;exitY=1;exitDx=0;exitDy=0;entryX=1;entryY=0;entryDx=0;entryDy=0;" parent="1" source="ntreNU7jlo5U-lVnMiPV-104" target="ntreNU7jlo5U-lVnMiPV-104" edge="1">
          <mxGeometry width="50" height="50" relative="1" as="geometry">
            <mxPoint x="572.6533982822018" y="134.87660171779828" as="sourcePoint" />
            <mxPoint x="595.35" y="115.12" as="targetPoint" />
          </mxGeometry>
        </mxCell>
        <mxCell id="ntreNU7jlo5U-lVnMiPV-106" value="" style="endArrow=none;html=1;rounded=0;exitX=0;exitY=0;exitDx=0;exitDy=0;entryX=1;entryY=1;entryDx=0;entryDy=0;" parent="1" source="ntreNU7jlo5U-lVnMiPV-104" target="ntreNU7jlo5U-lVnMiPV-104" edge="1">
          <mxGeometry width="50" height="50" relative="1" as="geometry">
            <mxPoint x="583" y="146" as="sourcePoint" />
            <mxPoint x="606" y="126" as="targetPoint" />
          </mxGeometry>
        </mxCell>
        <mxCell id="ntreNU7jlo5U-lVnMiPV-107" value="" style="endArrow=classic;html=1;rounded=0;exitX=0.25;exitY=0;exitDx=0;exitDy=0;entryX=0;entryY=0.5;entryDx=0;entryDy=0;" parent="1" source="ntreNU7jlo5U-lVnMiPV-91" target="ntreNU7jlo5U-lVnMiPV-94" edge="1">
          <mxGeometry width="50" height="50" relative="1" as="geometry">
            <mxPoint x="235" y="200" as="sourcePoint" />
            <mxPoint x="270" y="100" as="targetPoint" />
            <Array as="points">
              <mxPoint x="176" y="120" />
            </Array>
          </mxGeometry>
        </mxCell>
        <mxCell id="ntreNU7jlo5U-lVnMiPV-108" value="" style="endArrow=classic;html=1;rounded=0;exitX=0.5;exitY=0;exitDx=0;exitDy=0;entryX=0.5;entryY=1;entryDx=0;entryDy=0;" parent="1" source="ntreNU7jlo5U-lVnMiPV-83" target="ntreNU7jlo5U-lVnMiPV-94" edge="1">
          <mxGeometry width="50" height="50" relative="1" as="geometry">
            <mxPoint x="370" y="180" as="sourcePoint" />
            <mxPoint x="420" y="140" as="targetPoint" />
          </mxGeometry>
        </mxCell>
        <mxCell id="ntreNU7jlo5U-lVnMiPV-109" value="" style="endArrow=classic;html=1;rounded=0;exitX=0.5;exitY=0;exitDx=0;exitDy=0;entryX=0.5;entryY=1;entryDx=0;entryDy=0;" parent="1" source="ntreNU7jlo5U-lVnMiPV-84" target="ntreNU7jlo5U-lVnMiPV-97" edge="1">
          <mxGeometry width="50" height="50" relative="1" as="geometry">
            <mxPoint x="330" y="120" as="sourcePoint" />
            <mxPoint x="380" y="70" as="targetPoint" />
          </mxGeometry>
        </mxCell>
        <mxCell id="ntreNU7jlo5U-lVnMiPV-110" value="" style="endArrow=classic;html=1;rounded=0;exitX=0.5;exitY=0;exitDx=0;exitDy=0;entryX=0.5;entryY=1;entryDx=0;entryDy=0;" parent="1" source="ntreNU7jlo5U-lVnMiPV-85" target="ntreNU7jlo5U-lVnMiPV-104" edge="1">
          <mxGeometry width="50" height="50" relative="1" as="geometry">
            <mxPoint x="480" y="197" as="sourcePoint" />
            <mxPoint x="480" y="140" as="targetPoint" />
          </mxGeometry>
        </mxCell>
        <mxCell id="ntreNU7jlo5U-lVnMiPV-112" value="" style="endArrow=classic;html=1;rounded=0;exitX=0.5;exitY=0;exitDx=0;exitDy=0;" parent="1" source="ntreNU7jlo5U-lVnMiPV-91" edge="1">
          <mxGeometry width="50" height="50" relative="1" as="geometry">
            <mxPoint x="260" y="230" as="sourcePoint" />
            <mxPoint x="450" y="120" as="targetPoint" />
            <Array as="points">
              <mxPoint x="196" y="150" />
              <mxPoint x="420" y="150" />
              <mxPoint x="420" y="120" />
            </Array>
          </mxGeometry>
        </mxCell>
        <mxCell id="ntreNU7jlo5U-lVnMiPV-113" value="" style="endArrow=classic;html=1;rounded=0;exitX=0.75;exitY=0;exitDx=0;exitDy=0;entryX=0;entryY=0.5;entryDx=0;entryDy=0;" parent="1" source="ntreNU7jlo5U-lVnMiPV-91" target="ntreNU7jlo5U-lVnMiPV-104" edge="1">
          <mxGeometry width="50" height="50" relative="1" as="geometry">
            <mxPoint x="270" y="240" as="sourcePoint" />
            <mxPoint x="470" y="130" as="targetPoint" />
            <Array as="points">
              <mxPoint x="216" y="170" />
              <mxPoint x="540" y="170" />
              <mxPoint x="540" y="120" />
            </Array>
          </mxGeometry>
        </mxCell>
        <mxCell id="ntreNU7jlo5U-lVnMiPV-114" value="" style="ellipse;whiteSpace=wrap;html=1;aspect=fixed;fillColor=none;direction=east;flipH=1;flipV=1;" parent="1" vertex="1">
          <mxGeometry x="448" y="40" width="20" height="20" as="geometry" />
        </mxCell>
        <mxCell id="ntreNU7jlo5U-lVnMiPV-115" value="" style="endArrow=none;html=1;rounded=0;exitX=0;exitY=0.5;exitDx=0;exitDy=0;entryX=1;entryY=0.5;entryDx=0;entryDy=0;" parent="1" source="ntreNU7jlo5U-lVnMiPV-114" target="ntreNU7jlo5U-lVnMiPV-114" edge="1">
          <mxGeometry width="50" height="50" relative="1" as="geometry">
            <mxPoint x="464.3466017177982" y="35.12339828220172" as="sourcePoint" />
            <mxPoint x="441.65" y="54.879999999999995" as="targetPoint" />
          </mxGeometry>
        </mxCell>
        <mxCell id="ntreNU7jlo5U-lVnMiPV-116" value="" style="endArrow=none;html=1;rounded=0;exitX=0.5;exitY=0;exitDx=0;exitDy=0;entryX=0.5;entryY=1;entryDx=0;entryDy=0;" parent="1" source="ntreNU7jlo5U-lVnMiPV-114" target="ntreNU7jlo5U-lVnMiPV-114" edge="1">
          <mxGeometry width="50" height="50" relative="1" as="geometry">
            <mxPoint x="454" y="24.000000000000114" as="sourcePoint" />
            <mxPoint x="431" y="44.000000000000114" as="targetPoint" />
          </mxGeometry>
        </mxCell>
        <mxCell id="ntreNU7jlo5U-lVnMiPV-120" value="" style="endArrow=classic;html=1;rounded=0;exitX=0.5;exitY=0;exitDx=0;exitDy=0;entryX=0;entryY=0.5;entryDx=0;entryDy=0;" parent="1" source="ntreNU7jlo5U-lVnMiPV-94" edge="1" target="ntreNU7jlo5U-lVnMiPV-114">
          <mxGeometry width="50" height="50" relative="1" as="geometry">
            <mxPoint x="350" y="70" as="sourcePoint" />
            <mxPoint x="470" y="60" as="targetPoint" />
          </mxGeometry>
        </mxCell>
        <mxCell id="ntreNU7jlo5U-lVnMiPV-124" value="" style="endArrow=classic;html=1;rounded=0;exitX=0.5;exitY=0;exitDx=0;exitDy=0;entryX=0.5;entryY=1;entryDx=0;entryDy=0;" parent="1" source="ntreNU7jlo5U-lVnMiPV-97" target="ntreNU7jlo5U-lVnMiPV-114" edge="1">
          <mxGeometry width="50" height="50" relative="1" as="geometry">
            <mxPoint x="485" y="100" as="sourcePoint" />
            <mxPoint x="585" y="50" as="targetPoint" />
          </mxGeometry>
        </mxCell>
        <mxCell id="ntreNU7jlo5U-lVnMiPV-126" value="" style="endArrow=classic;html=1;rounded=0;exitX=0.5;exitY=0;exitDx=0;exitDy=0;entryX=0.5;entryY=1;entryDx=0;entryDy=0;" parent="1" source="ntreNU7jlo5U-lVnMiPV-114" target="KOXAZtSZaanID1QkLMNk-12" edge="1">
          <mxGeometry width="50" height="50" relative="1" as="geometry">
            <mxPoint x="378" y="190" as="sourcePoint" />
            <mxPoint x="458" y="20" as="targetPoint" />
          </mxGeometry>
        </mxCell>
        <mxCell id="KOXAZtSZaanID1QkLMNk-3" style="edgeStyle=orthogonalEdgeStyle;rounded=0;orthogonalLoop=1;jettySize=auto;html=1;exitX=0.5;exitY=0;exitDx=0;exitDy=0;entryX=0.5;entryY=1;entryDx=0;entryDy=0;" parent="1" target="KOXAZtSZaanID1QkLMNk-32" edge="1">
          <mxGeometry relative="1" as="geometry">
            <mxPoint x="461" y="520" as="sourcePoint" />
            <mxPoint x="370" y="470" as="targetPoint" />
          </mxGeometry>
        </mxCell>
        <mxCell id="KOXAZtSZaanID1QkLMNk-5" style="edgeStyle=orthogonalEdgeStyle;rounded=0;orthogonalLoop=1;jettySize=auto;html=1;exitX=0.5;exitY=0;exitDx=0;exitDy=0;entryX=0.5;entryY=1;entryDx=0;entryDy=0;" parent="1" target="KOXAZtSZaanID1QkLMNk-34" edge="1">
          <mxGeometry relative="1" as="geometry">
            <mxPoint x="461" y="520" as="sourcePoint" />
            <mxPoint x="577" y="470" as="targetPoint" />
          </mxGeometry>
        </mxCell>
        <mxCell id="KOXAZtSZaanID1QkLMNk-6" value="stationarization normalization" style="rounded=0;whiteSpace=wrap;html=1;" parent="1" vertex="1">
          <mxGeometry x="401" y="611" width="120" height="40" as="geometry" />
        </mxCell>
        <mxCell id="KOXAZtSZaanID1QkLMNk-8" value="" style="endArrow=classic;html=1;rounded=0;entryX=0.5;entryY=1;entryDx=0;entryDy=0;" parent="1" target="KOXAZtSZaanID1QkLMNk-6" edge="1">
          <mxGeometry width="50" height="50" relative="1" as="geometry">
            <mxPoint x="461" y="700" as="sourcePoint" />
            <mxPoint x="391" y="450" as="targetPoint" />
          </mxGeometry>
        </mxCell>
        <mxCell id="KOXAZtSZaanID1QkLMNk-11" value="Linear mapping" style="rounded=0;whiteSpace=wrap;html=1;" parent="1" vertex="1">
          <mxGeometry x="398" y="-70" width="120" height="40" as="geometry" />
        </mxCell>
        <mxCell id="KOXAZtSZaanID1QkLMNk-12" value="" style="ellipse;whiteSpace=wrap;html=1;aspect=fixed;fillColor=none;direction=east;flipH=1;flipV=1;" parent="1" vertex="1">
          <mxGeometry x="448" width="20" height="20" as="geometry" />
        </mxCell>
        <mxCell id="KOXAZtSZaanID1QkLMNk-13" value="" style="endArrow=none;html=1;rounded=0;exitX=0;exitY=0.5;exitDx=0;exitDy=0;entryX=1;entryY=0.5;entryDx=0;entryDy=0;" parent="1" source="KOXAZtSZaanID1QkLMNk-12" target="KOXAZtSZaanID1QkLMNk-12" edge="1">
          <mxGeometry width="50" height="50" relative="1" as="geometry">
            <mxPoint x="464.3466017177982" y="-4.87660171779828" as="sourcePoint" />
            <mxPoint x="441.65" y="14.879999999999995" as="targetPoint" />
          </mxGeometry>
        </mxCell>
        <mxCell id="KOXAZtSZaanID1QkLMNk-14" value="" style="endArrow=none;html=1;rounded=0;exitX=0.5;exitY=0;exitDx=0;exitDy=0;entryX=0.5;entryY=1;entryDx=0;entryDy=0;" parent="1" source="KOXAZtSZaanID1QkLMNk-12" target="KOXAZtSZaanID1QkLMNk-12" edge="1">
          <mxGeometry width="50" height="50" relative="1" as="geometry">
            <mxPoint x="454" y="-15.999999999999886" as="sourcePoint" />
            <mxPoint x="431" y="4.000000000000114" as="targetPoint" />
          </mxGeometry>
        </mxCell>
        <mxCell id="KOXAZtSZaanID1QkLMNk-15" value="" style="endArrow=classic;html=1;rounded=0;" parent="1" edge="1">
          <mxGeometry width="50" height="50" relative="1" as="geometry">
            <mxPoint x="530" y="540" as="sourcePoint" />
            <mxPoint x="550" y="50" as="targetPoint" />
            <Array as="points">
              <mxPoint x="770" y="540" />
              <mxPoint x="770" y="290" />
              <mxPoint x="770" y="50" />
            </Array>
          </mxGeometry>
        </mxCell>
        <mxCell id="KOXAZtSZaanID1QkLMNk-16" value="Residual Connection" style="text;html=1;strokeColor=none;fillColor=none;align=center;verticalAlign=middle;whiteSpace=wrap;rounded=0;" parent="1" vertex="1">
          <mxGeometry x="480" y="10" width="190" height="30" as="geometry" />
        </mxCell>
        <mxCell id="KOXAZtSZaanID1QkLMNk-17" value="" style="endArrow=classic;html=1;rounded=0;exitX=0.5;exitY=0;exitDx=0;exitDy=0;" parent="1" source="KOXAZtSZaanID1QkLMNk-12" edge="1">
          <mxGeometry width="50" height="50" relative="1" as="geometry">
            <mxPoint x="408" y="-20" as="sourcePoint" />
            <mxPoint x="458" y="-30" as="targetPoint" />
          </mxGeometry>
        </mxCell>
        <mxCell id="KOXAZtSZaanID1QkLMNk-18" value="denormalization" style="rounded=0;whiteSpace=wrap;html=1;" parent="1" vertex="1">
          <mxGeometry x="398" y="-140" width="120" height="40" as="geometry" />
        </mxCell>
        <mxCell id="KOXAZtSZaanID1QkLMNk-19" value="output data" style="rounded=0;whiteSpace=wrap;html=1;" parent="1" vertex="1">
          <mxGeometry x="398" y="-210" width="120" height="40" as="geometry" />
        </mxCell>
        <mxCell id="KOXAZtSZaanID1QkLMNk-20" value="" style="endArrow=classic;html=1;rounded=0;exitX=0.5;exitY=0;exitDx=0;exitDy=0;" parent="1" edge="1">
          <mxGeometry width="50" height="50" relative="1" as="geometry">
            <mxPoint x="457.93" y="-70" as="sourcePoint" />
            <mxPoint x="457.93" y="-100" as="targetPoint" />
          </mxGeometry>
        </mxCell>
        <mxCell id="KOXAZtSZaanID1QkLMNk-21" value="" style="endArrow=classic;html=1;rounded=0;exitX=0.5;exitY=0;exitDx=0;exitDy=0;entryX=0.5;entryY=1;entryDx=0;entryDy=0;" parent="1" source="KOXAZtSZaanID1QkLMNk-18" target="KOXAZtSZaanID1QkLMNk-19" edge="1">
          <mxGeometry width="50" height="50" relative="1" as="geometry">
            <mxPoint x="438" y="-120" as="sourcePoint" />
            <mxPoint x="488" y="-170" as="targetPoint" />
          </mxGeometry>
        </mxCell>
        <mxCell id="KOXAZtSZaanID1QkLMNk-22" value="X" style="text;html=1;strokeColor=none;fillColor=none;align=center;verticalAlign=middle;whiteSpace=wrap;rounded=0;" parent="1" vertex="1">
          <mxGeometry x="435" y="660" width="20" height="30" as="geometry" />
        </mxCell>
        <mxCell id="KOXAZtSZaanID1QkLMNk-23" value="[B*L*C]" style="text;html=1;strokeColor=none;fillColor=none;align=center;verticalAlign=middle;whiteSpace=wrap;rounded=0;" parent="1" vertex="1">
          <mxGeometry x="467" y="660" width="50" height="30" as="geometry" />
        </mxCell>
        <mxCell id="KOXAZtSZaanID1QkLMNk-24" value="X" style="text;html=1;strokeColor=none;fillColor=none;align=center;verticalAlign=middle;whiteSpace=wrap;rounded=0;" parent="1" vertex="1">
          <mxGeometry x="434" y="575" width="20" height="30" as="geometry" />
        </mxCell>
        <mxCell id="KOXAZtSZaanID1QkLMNk-25" value="[B*L*C]" style="text;html=1;strokeColor=none;fillColor=none;align=center;verticalAlign=middle;whiteSpace=wrap;rounded=0;" parent="1" vertex="1">
          <mxGeometry x="466" y="575" width="50" height="30" as="geometry" />
        </mxCell>
        <mxCell id="KOXAZtSZaanID1QkLMNk-27" value="" style="endArrow=classic;html=1;rounded=0;exitX=0.5;exitY=0;exitDx=0;exitDy=0;entryX=0.5;entryY=1;entryDx=0;entryDy=0;" parent="1" source="KOXAZtSZaanID1QkLMNk-6" target="KOXAZtSZaanID1QkLMNk-33" edge="1">
          <mxGeometry width="50" height="50" relative="1" as="geometry">
            <mxPoint x="471" y="550" as="sourcePoint" />
            <mxPoint x="461" y="470" as="targetPoint" />
          </mxGeometry>
        </mxCell>
        <mxCell id="KOXAZtSZaanID1QkLMNk-29" value="[B*L*C]&lt;br&gt;(e.g. 30-day)" style="text;html=1;strokeColor=none;fillColor=none;align=center;verticalAlign=middle;whiteSpace=wrap;rounded=0;" parent="1" vertex="1">
          <mxGeometry x="351" y="470" width="79" height="30" as="geometry" />
        </mxCell>
        <mxCell id="KOXAZtSZaanID1QkLMNk-30" value="[B*(L/2)*C]&lt;br&gt;（e.g. 14-day）" style="text;html=1;strokeColor=none;fillColor=none;align=center;verticalAlign=middle;whiteSpace=wrap;rounded=0;" parent="1" vertex="1">
          <mxGeometry x="454" y="470" width="95" height="30" as="geometry" />
        </mxCell>
        <mxCell id="KOXAZtSZaanID1QkLMNk-31" value="[B*(L/4)*C]&lt;br&gt;(e.g. 7-day)" style="text;html=1;strokeColor=none;fillColor=none;align=center;verticalAlign=middle;whiteSpace=wrap;rounded=0;" parent="1" vertex="1">
          <mxGeometry x="575" y="470" width="80" height="30" as="geometry" />
        </mxCell>
        <mxCell id="KOXAZtSZaanID1QkLMNk-32" value="flatten" style="rounded=0;whiteSpace=wrap;html=1;" parent="1" vertex="1">
          <mxGeometry x="310" y="400" width="76" height="30" as="geometry" />
        </mxCell>
        <mxCell id="KOXAZtSZaanID1QkLMNk-33" value="flatten" style="rounded=0;whiteSpace=wrap;html=1;" parent="1" vertex="1">
          <mxGeometry x="421" y="400" width="80" height="30" as="geometry" />
        </mxCell>
        <mxCell id="KOXAZtSZaanID1QkLMNk-34" value="flatten" style="rounded=0;whiteSpace=wrap;html=1;" parent="1" vertex="1">
          <mxGeometry x="540" y="400" width="80" height="30" as="geometry" />
        </mxCell>
        <mxCell id="KOXAZtSZaanID1QkLMNk-38" value="" style="endArrow=classic;html=1;rounded=0;exitX=0.5;exitY=0;exitDx=0;exitDy=0;entryX=0.266;entryY=0.922;entryDx=0;entryDy=0;entryPerimeter=0;" parent="1" source="KOXAZtSZaanID1QkLMNk-32" edge="1" target="ntreNU7jlo5U-lVnMiPV-79">
          <mxGeometry width="50" height="50" relative="1" as="geometry">
            <mxPoint x="420" y="450" as="sourcePoint" />
            <mxPoint x="370" y="340" as="targetPoint" />
          </mxGeometry>
        </mxCell>
        <mxCell id="KOXAZtSZaanID1QkLMNk-39" value="" style="endArrow=classic;html=1;rounded=0;exitX=0.5;exitY=0;exitDx=0;exitDy=0;" parent="1" source="KOXAZtSZaanID1QkLMNk-33" edge="1">
          <mxGeometry width="50" height="50" relative="1" as="geometry">
            <mxPoint x="430" y="530" as="sourcePoint" />
            <mxPoint x="461" y="340" as="targetPoint" />
          </mxGeometry>
        </mxCell>
        <mxCell id="KOXAZtSZaanID1QkLMNk-40" value="" style="endArrow=classic;html=1;rounded=0;exitX=0.5;exitY=0;exitDx=0;exitDy=0;entryX=0.5;entryY=1;entryDx=0;entryDy=0;" parent="1" source="KOXAZtSZaanID1QkLMNk-34" target="ntreNU7jlo5U-lVnMiPV-77" edge="1">
          <mxGeometry width="50" height="50" relative="1" as="geometry">
            <mxPoint x="430" y="290" as="sourcePoint" />
            <mxPoint x="570" y="360" as="targetPoint" />
          </mxGeometry>
        </mxCell>
        <mxCell id="KOXAZtSZaanID1QkLMNk-42" value="" style="endArrow=none;html=1;rounded=0;exitX=0.06;exitY=0.006;exitDx=0;exitDy=0;exitPerimeter=0;entryX=0.06;entryY=1.006;entryDx=0;entryDy=0;entryPerimeter=0;" parent="1" edge="1">
          <mxGeometry width="50" height="50" relative="1" as="geometry">
            <mxPoint x="341" y="310" as="sourcePoint" />
            <mxPoint x="341" y="330" as="targetPoint" />
          </mxGeometry>
        </mxCell>
        <mxCell id="KOXAZtSZaanID1QkLMNk-43" value="" style="endArrow=none;html=1;rounded=0;exitX=0.06;exitY=0.006;exitDx=0;exitDy=0;exitPerimeter=0;entryX=0.06;entryY=1.006;entryDx=0;entryDy=0;entryPerimeter=0;" parent="1" edge="1">
          <mxGeometry width="50" height="50" relative="1" as="geometry">
            <mxPoint x="320" y="310" as="sourcePoint" />
            <mxPoint x="320" y="330" as="targetPoint" />
          </mxGeometry>
        </mxCell>
        <mxCell id="KOXAZtSZaanID1QkLMNk-44" value="" style="endArrow=none;html=1;rounded=0;exitX=0.06;exitY=0.006;exitDx=0;exitDy=0;exitPerimeter=0;entryX=0.06;entryY=1.006;entryDx=0;entryDy=0;entryPerimeter=0;" parent="1" edge="1">
          <mxGeometry width="50" height="50" relative="1" as="geometry">
            <mxPoint x="300" y="310" as="sourcePoint" />
            <mxPoint x="300" y="330" as="targetPoint" />
          </mxGeometry>
        </mxCell>
        <mxCell id="KOXAZtSZaanID1QkLMNk-45" value="" style="endArrow=none;html=1;rounded=0;exitX=0.06;exitY=0.006;exitDx=0;exitDy=0;exitPerimeter=0;entryX=0.06;entryY=1.006;entryDx=0;entryDy=0;entryPerimeter=0;" parent="1" edge="1">
          <mxGeometry width="50" height="50" relative="1" as="geometry">
            <mxPoint x="280" y="310" as="sourcePoint" />
            <mxPoint x="280" y="330" as="targetPoint" />
          </mxGeometry>
        </mxCell>
        <mxCell id="O3ohlPy4hN820MQhOgyp-3" value="[B*(L*C)]" style="text;html=1;strokeColor=none;fillColor=none;align=center;verticalAlign=middle;whiteSpace=wrap;rounded=0;" vertex="1" parent="1">
          <mxGeometry x="335" y="360" width="79" height="30" as="geometry" />
        </mxCell>
        <mxCell id="O3ohlPy4hN820MQhOgyp-4" value="[B*(L/2*C)]" style="text;html=1;strokeColor=none;fillColor=none;align=center;verticalAlign=middle;whiteSpace=wrap;rounded=0;" vertex="1" parent="1">
          <mxGeometry x="445" y="360" width="95" height="30" as="geometry" />
        </mxCell>
        <mxCell id="O3ohlPy4hN820MQhOgyp-5" value="[B*(L/4*C)]" style="text;html=1;strokeColor=none;fillColor=none;align=center;verticalAlign=middle;whiteSpace=wrap;rounded=0;" vertex="1" parent="1">
          <mxGeometry x="567.5" y="360" width="95" height="30" as="geometry" />
        </mxCell>
        <mxCell id="O3ohlPy4hN820MQhOgyp-6" style="edgeStyle=orthogonalEdgeStyle;rounded=0;orthogonalLoop=1;jettySize=auto;html=1;exitX=0.5;exitY=1;exitDx=0;exitDy=0;" edge="1" parent="1" source="ntreNU7jlo5U-lVnMiPV-83" target="ntreNU7jlo5U-lVnMiPV-83">
          <mxGeometry relative="1" as="geometry" />
        </mxCell>
        <mxCell id="O3ohlPy4hN820MQhOgyp-7" value="&lt;b&gt;Notations:&lt;/b&gt;&lt;br&gt;&lt;b&gt;B&lt;/b&gt;:Batch-size&lt;br&gt;&lt;b&gt;C&lt;/b&gt;:channel-size&lt;br&gt;&lt;b&gt;L&lt;/b&gt;:lookback window size&lt;br&gt;&lt;b&gt;d&lt;/b&gt;:hidden size" style="text;html=1;strokeColor=none;fillColor=none;align=left;verticalAlign=middle;whiteSpace=wrap;rounded=0;" vertex="1" parent="1">
          <mxGeometry x="240" y="570" width="134" height="30" as="geometry" />
        </mxCell>
        <mxCell id="O3ohlPy4hN820MQhOgyp-8" value="Input time series" style="text;html=1;strokeColor=none;fillColor=none;align=center;verticalAlign=middle;whiteSpace=wrap;rounded=0;" vertex="1" parent="1">
          <mxGeometry x="380" y="700" width="170" height="30" as="geometry" />
        </mxCell>
        <mxCell id="O3ohlPy4hN820MQhOgyp-9" value="[B*d]" style="text;html=1;strokeColor=none;fillColor=none;align=center;verticalAlign=middle;whiteSpace=wrap;rounded=0;" vertex="1" parent="1">
          <mxGeometry x="341" y="70" width="33" height="30" as="geometry" />
        </mxCell>
        <mxCell id="O3ohlPy4hN820MQhOgyp-10" value="[B*d]" style="text;html=1;strokeColor=none;fillColor=none;align=center;verticalAlign=middle;whiteSpace=wrap;rounded=0;" vertex="1" parent="1">
          <mxGeometry x="422" y="70" width="33" height="30" as="geometry" />
        </mxCell>
        <mxCell id="O3ohlPy4hN820MQhOgyp-11" value="[B*d]" style="text;html=1;strokeColor=none;fillColor=none;align=center;verticalAlign=middle;whiteSpace=wrap;rounded=0;" vertex="1" parent="1">
          <mxGeometry x="488" y="70" width="33" height="30" as="geometry" />
        </mxCell>
        <mxCell id="O3ohlPy4hN820MQhOgyp-13" value="" style="endArrow=classic;html=1;rounded=0;exitX=0;exitY=0;exitDx=0;exitDy=0;entryX=1;entryY=0.5;entryDx=0;entryDy=0;" edge="1" parent="1" source="ntreNU7jlo5U-lVnMiPV-104" target="ntreNU7jlo5U-lVnMiPV-114">
          <mxGeometry width="50" height="50" relative="1" as="geometry">
            <mxPoint x="410" y="60" as="sourcePoint" />
            <mxPoint x="460" y="10" as="targetPoint" />
          </mxGeometry>
        </mxCell>
      </root>
    </mxGraphModel>
  </diagram>
</mxfile>
